<svg width="86" height="84" viewBox="0 0 86 84" fill="none" xmlns="http://www.w3.org/2000/svg" xmlns:xlink="http://www.w3.org/1999/xlink">
<path d="M15.242,43.61C16.11,42.764 17.287,42.288 18.514,42.288C19.741,42.288 20.918,42.764 21.787,43.61C22.216,44.029 22.556,44.526 22.788,45.073C23.021,45.62 23.14,46.207 23.14,46.8C23.14,47.392 23.021,47.979 22.788,48.526C22.556,49.073 22.216,49.57 21.787,49.989L11.969,59.565C11.11,60.402 10.429,61.397 9.964,62.492C9.499,63.587 9.259,64.761 9.259,65.946C9.259,67.132 9.499,68.306 9.964,69.401C10.429,70.496 11.11,71.49 11.969,72.328C13.707,74.02 16.06,74.971 18.514,74.971C20.968,74.971 23.322,74.02 25.059,72.328L47.961,49.989C48.39,49.57 48.731,49.073 48.963,48.526C49.195,47.979 49.315,47.392 49.315,46.8C49.315,46.207 49.195,45.62 48.963,45.073C48.731,44.526 48.39,44.029 47.961,43.61C47.531,43.191 47.19,42.694 46.958,42.146C46.725,41.598 46.605,41.011 46.605,40.418C46.605,39.825 46.725,39.238 46.958,38.69C47.19,38.142 47.531,37.645 47.961,37.226C48.83,36.38 50.007,35.905 51.234,35.905C52.461,35.905 53.637,36.38 54.506,37.226C55.795,38.482 56.817,39.974 57.515,41.617C58.213,43.26 58.572,45.021 58.572,46.8C58.572,48.578 58.213,50.339 57.515,51.982C56.817,53.625 55.795,55.117 54.506,56.373L31.599,78.712C28.125,82.098 23.417,84 18.509,84C13.601,84 8.894,82.098 5.42,78.712C3.702,77.037 2.339,75.047 1.409,72.857C0.479,70.667 0,68.32 0,65.949C0,63.578 0.479,61.23 1.409,59.04C2.339,56.85 3.702,54.861 5.42,53.186L15.242,43.605L15.242,43.61ZM70.753,40.39C69.885,41.236 68.708,41.712 67.481,41.712C66.254,41.712 65.077,41.236 64.209,40.39C63.779,39.971 63.439,39.474 63.207,38.927C62.974,38.38 62.855,37.793 62.855,37.2C62.855,36.608 62.974,36.021 63.207,35.474C63.439,34.927 63.779,34.43 64.209,34.011L74.026,24.435C74.885,23.598 75.566,22.603 76.031,21.508C76.496,20.413 76.736,19.239 76.736,18.054C76.736,16.868 76.496,15.694 76.031,14.599C75.566,13.504 74.885,12.51 74.026,11.672C72.289,9.98 69.935,9.029 67.481,9.029C65.027,9.029 62.674,9.98 60.936,11.672L38.039,34.011C37.61,34.43 37.269,34.927 37.037,35.474C36.805,36.021 36.685,36.608 36.685,37.2C36.685,37.793 36.805,38.38 37.037,38.927C37.269,39.474 37.61,39.971 38.039,40.39C38.469,40.809 38.81,41.306 39.042,41.854C39.275,42.402 39.395,42.989 39.395,43.582C39.395,44.175 39.275,44.762 39.042,45.31C38.81,45.858 38.469,46.355 38.039,46.774C37.17,47.62 35.993,48.095 34.766,48.095C33.539,48.095 32.363,47.62 31.494,46.774C30.205,45.518 29.183,44.026 28.485,42.383C27.787,40.74 27.428,38.979 27.428,37.2C27.428,35.422 27.787,33.661 28.485,32.018C29.183,30.375 30.205,28.883 31.494,27.627L54.401,5.288C57.875,1.902 62.583,0 67.491,0C72.399,0 77.106,1.902 80.58,5.288C82.298,6.963 83.661,8.953 84.591,11.143C85.521,13.333 86,15.68 86,18.051C86,20.422 85.521,22.77 84.591,24.96C83.661,27.15 82.298,29.139 80.58,30.814L70.753,40.395L70.753,40.39Z" fill="#FFFFFF"/>
</svg>
